<mxfile host="app.diagrams.net" modified="2022-07-20T02:47:30.407Z" agent="5.0 (Windows NT 10.0; Win64; x64) AppleWebKit/537.36 (KHTML, like Gecko) Chrome/103.0.5060.66 Safari/537.36 Edg/103.0.1264.44" etag="q1VTZtb_uQmdT1JoZts1" version="20.0.4" type="github">
  <diagram id="EpbWylULgYxyCtTbn7Sz" name="第 1 页">
    <mxGraphModel dx="1761" dy="965" grid="1" gridSize="10" guides="1" tooltips="1" connect="1" arrows="1" fold="1" page="1" pageScale="1" pageWidth="827" pageHeight="1169" math="0" shadow="0">
      <root>
        <mxCell id="0" />
        <mxCell id="1" parent="0" />
        <mxCell id="KIVY4oxuxgpTc2JLVLL0-31" value="push系统" style="rounded=0;whiteSpace=wrap;html=1;fontSize=18;fontStyle=1;verticalAlign=top;align=right;" vertex="1" parent="1">
          <mxGeometry x="1060" y="1060" width="300" height="80" as="geometry" />
        </mxCell>
        <mxCell id="KIVY4oxuxgpTc2JLVLL0-24" value="&lt;div style=&quot;&quot;&gt;&lt;span style=&quot;background-color: initial;&quot;&gt;lb&lt;/span&gt;&lt;/div&gt;" style="rounded=0;whiteSpace=wrap;html=1;fontSize=18;verticalAlign=top;fontStyle=1;align=right;" vertex="1" parent="1">
          <mxGeometry x="1400" y="940" width="240" height="80" as="geometry" />
        </mxCell>
        <mxCell id="KIVY4oxuxgpTc2JLVLL0-17" value="中转服务" style="rounded=0;whiteSpace=wrap;html=1;fontSize=18;verticalAlign=top;fontStyle=1;align=right;" vertex="1" parent="1">
          <mxGeometry x="1060" y="940" width="290" height="80" as="geometry" />
        </mxCell>
        <mxCell id="KIVY4oxuxgpTc2JLVLL0-15" value="　proxy" style="rounded=0;whiteSpace=wrap;html=1;fontSize=15;verticalAlign=top;fontStyle=1" vertex="1" parent="1">
          <mxGeometry x="1060" y="813" width="290" height="77" as="geometry" />
        </mxCell>
        <mxCell id="F52f6HL5-kWmurxWYG2i-23" value="&lt;font style=&quot;font-size: 18px;&quot;&gt;客户端&lt;/font&gt;" style="rounded=0;whiteSpace=wrap;html=1;fontSize=15;fontColor=#000000;strokeWidth=1;align=left;verticalAlign=top;" parent="1" vertex="1">
          <mxGeometry x="112.5" y="220" width="347.5" height="240" as="geometry" />
        </mxCell>
        <mxCell id="F52f6HL5-kWmurxWYG2i-22" value="&lt;font style=&quot;font-size: 18px;&quot; color=&quot;#000000&quot;&gt;服务端&lt;/font&gt;" style="rounded=0;whiteSpace=wrap;html=1;fontSize=15;fontColor=#FF6666;strokeWidth=1;align=left;verticalAlign=top;" parent="1" vertex="1">
          <mxGeometry x="530" y="220" width="580" height="240" as="geometry" />
        </mxCell>
        <mxCell id="F52f6HL5-kWmurxWYG2i-3" value="&lt;div style=&quot;text-align: justify;&quot;&gt;&lt;span style=&quot;background-color: initial;&quot;&gt;FastNet SDK&lt;/span&gt;&lt;/div&gt;" style="rounded=0;whiteSpace=wrap;html=1;fontSize=15;strokeWidth=1;align=left;verticalAlign=top;fillColor=#fad7ac;strokeColor=#b46504;" parent="1" vertex="1">
          <mxGeometry x="200" y="330" width="190" height="110" as="geometry" />
        </mxCell>
        <mxCell id="F52f6HL5-kWmurxWYG2i-1" value="&lt;font style=&quot;font-size: 15px;&quot; color=&quot;#ff6666&quot;&gt;grpc拆包&lt;/font&gt;" style="rounded=0;whiteSpace=wrap;html=1;fillColor=#bac8d3;strokeColor=#23445d;" parent="1" vertex="1">
          <mxGeometry x="250" y="380" width="70" height="60" as="geometry" />
        </mxCell>
        <mxCell id="F52f6HL5-kWmurxWYG2i-2" value="&lt;font style=&quot;font-size: 15px;&quot;&gt;Cronet&lt;/font&gt;" style="rounded=0;whiteSpace=wrap;html=1;fillColor=#b0e3e6;strokeColor=#0e8088;strokeWidth=3;" parent="1" vertex="1">
          <mxGeometry x="320" y="380" width="70" height="60" as="geometry" />
        </mxCell>
        <mxCell id="F52f6HL5-kWmurxWYG2i-8" value="web nginx" style="rounded=0;whiteSpace=wrap;html=1;fontSize=15;fontColor=#190033;strokeWidth=1;" parent="1" vertex="1">
          <mxGeometry x="560" y="260" width="120" height="60" as="geometry" />
        </mxCell>
        <mxCell id="F52f6HL5-kWmurxWYG2i-9" value="h2/h3" style="html=1;shadow=0;dashed=0;align=center;verticalAlign=middle;shape=mxgraph.arrows2.twoWayArrow;dy=0.65;dx=22;fontSize=15;strokeWidth=1;fillColor=#b0e3e6;strokeColor=#0e8088;" parent="1" vertex="1">
          <mxGeometry x="390" y="380" width="180" height="60" as="geometry" />
        </mxCell>
        <mxCell id="F52f6HL5-kWmurxWYG2i-10" value="grpc proxy" style="rounded=0;whiteSpace=wrap;html=1;fontSize=15;strokeWidth=1;fillColor=#b0e3e6;strokeColor=#0e8088;" parent="1" vertex="1">
          <mxGeometry x="570" y="380" width="120" height="60" as="geometry" />
        </mxCell>
        <mxCell id="F52f6HL5-kWmurxWYG2i-11" value="httpconfig" style="rounded=0;whiteSpace=wrap;html=1;fontSize=15;fontColor=#000000;strokeWidth=1;" parent="1" vertex="1">
          <mxGeometry x="740" y="260" width="120" height="60" as="geometry" />
        </mxCell>
        <mxCell id="F52f6HL5-kWmurxWYG2i-12" value="&lt;font&gt;中转服务&lt;/font&gt;" style="rounded=0;whiteSpace=wrap;html=1;fontSize=15;strokeWidth=1;fillColor=#fad7ac;strokeColor=#b46504;" parent="1" vertex="1">
          <mxGeometry x="740" y="380" width="120" height="60" as="geometry" />
        </mxCell>
        <mxCell id="F52f6HL5-kWmurxWYG2i-13" value="push服务" style="rounded=0;whiteSpace=wrap;html=1;fontSize=15;fontColor=#000000;strokeWidth=1;" parent="1" vertex="1">
          <mxGeometry x="950" y="380" width="120" height="60" as="geometry" />
        </mxCell>
        <mxCell id="F52f6HL5-kWmurxWYG2i-14" value="" style="endArrow=classic;startArrow=classic;html=1;rounded=0;fontSize=15;fontColor=#FF6666;entryX=0;entryY=0.5;entryDx=0;entryDy=0;" parent="1" target="F52f6HL5-kWmurxWYG2i-13" edge="1">
          <mxGeometry width="50" height="50" relative="1" as="geometry">
            <mxPoint x="860" y="411" as="sourcePoint" />
            <mxPoint x="908" y="408" as="targetPoint" />
          </mxGeometry>
        </mxCell>
        <mxCell id="F52f6HL5-kWmurxWYG2i-15" value="tcp rpc" style="edgeLabel;html=1;align=center;verticalAlign=middle;resizable=0;points=[];fontSize=15;fontColor=#000000;" parent="F52f6HL5-kWmurxWYG2i-14" vertex="1" connectable="0">
          <mxGeometry x="-0.51" y="-1" relative="1" as="geometry">
            <mxPoint x="15" y="-2" as="offset" />
          </mxGeometry>
        </mxCell>
        <mxCell id="F52f6HL5-kWmurxWYG2i-16" value="" style="endArrow=classic;startArrow=classic;html=1;rounded=0;fontSize=15;fontColor=#FF6666;exitX=1;exitY=0.5;exitDx=0;exitDy=0;entryX=0;entryY=0.5;entryDx=0;entryDy=0;" parent="1" source="F52f6HL5-kWmurxWYG2i-10" target="F52f6HL5-kWmurxWYG2i-12" edge="1">
          <mxGeometry width="50" height="50" relative="1" as="geometry">
            <mxPoint x="690" y="450" as="sourcePoint" />
            <mxPoint x="740" y="400" as="targetPoint" />
          </mxGeometry>
        </mxCell>
        <mxCell id="F52f6HL5-kWmurxWYG2i-18" value="" style="endArrow=classic;html=1;rounded=0;fontSize=15;fontColor=#FF6666;entryX=0;entryY=0.5;entryDx=0;entryDy=0;" parent="1" source="F52f6HL5-kWmurxWYG2i-8" target="F52f6HL5-kWmurxWYG2i-11" edge="1">
          <mxGeometry width="50" height="50" relative="1" as="geometry">
            <mxPoint x="690" y="330" as="sourcePoint" />
            <mxPoint x="740" y="280" as="targetPoint" />
            <Array as="points">
              <mxPoint x="710" y="290" />
            </Array>
          </mxGeometry>
        </mxCell>
        <mxCell id="F52f6HL5-kWmurxWYG2i-19" value="上报连接信息" style="endArrow=classic;html=1;rounded=0;fontSize=15;fontColor=#000000;entryX=0;entryY=0.5;entryDx=0;entryDy=0;" parent="1" target="F52f6HL5-kWmurxWYG2i-11" edge="1">
          <mxGeometry x="-0.0377" y="-7" width="50" height="50" relative="1" as="geometry">
            <mxPoint x="690" y="380" as="sourcePoint" />
            <mxPoint x="740" y="330" as="targetPoint" />
            <mxPoint as="offset" />
          </mxGeometry>
        </mxCell>
        <mxCell id="F52f6HL5-kWmurxWYG2i-21" value="获取就近接入点" style="edgeStyle=elbowEdgeStyle;elbow=horizontal;endArrow=classic;html=1;rounded=0;fontSize=15;fontColor=#000000;entryX=0;entryY=0.75;entryDx=0;entryDy=0;" parent="1" target="F52f6HL5-kWmurxWYG2i-8" edge="1">
          <mxGeometry width="50" height="50" relative="1" as="geometry">
            <mxPoint x="390" y="360" as="sourcePoint" />
            <mxPoint x="440" y="310" as="targetPoint" />
          </mxGeometry>
        </mxCell>
        <mxCell id="F52f6HL5-kWmurxWYG2i-24" value="&lt;font style=&quot;font-size: 14px;&quot;&gt;1字节(是否压缩)&lt;/font&gt;" style="rounded=0;whiteSpace=wrap;html=1;fontSize=14;fontColor=#000000;strokeWidth=1;" parent="1" vertex="1">
          <mxGeometry x="150" y="650" width="120" height="40" as="geometry" />
        </mxCell>
        <mxCell id="F52f6HL5-kWmurxWYG2i-25" value="4字节(长度)" style="rounded=0;whiteSpace=wrap;html=1;fontSize=14;fontColor=#000000;strokeWidth=1;" parent="1" vertex="1">
          <mxGeometry x="270" y="650" width="90" height="40" as="geometry" />
        </mxCell>
        <mxCell id="F52f6HL5-kWmurxWYG2i-26" value="&lt;font style=&quot;font-size: 14px;&quot;&gt;2字节(业务标识)&lt;/font&gt;" style="rounded=0;whiteSpace=wrap;html=1;fontSize=12;fontColor=#000000;strokeWidth=1;" parent="1" vertex="1">
          <mxGeometry x="359" y="650" width="110" height="40" as="geometry" />
        </mxCell>
        <mxCell id="F52f6HL5-kWmurxWYG2i-27" value="1字节(proxy是否解包)" style="rounded=0;whiteSpace=wrap;html=1;fontSize=14;fontColor=#000000;strokeWidth=1;" parent="1" vertex="1">
          <mxGeometry x="469" y="650" width="160" height="40" as="geometry" />
        </mxCell>
        <mxCell id="F52f6HL5-kWmurxWYG2i-28" value="8字节(唯一标识)" style="rounded=0;whiteSpace=wrap;html=1;fontSize=14;fontColor=#000000;strokeWidth=1;" parent="1" vertex="1">
          <mxGeometry x="629" y="650" width="111" height="40" as="geometry" />
        </mxCell>
        <mxCell id="F52f6HL5-kWmurxWYG2i-29" value="" style="shape=curlyBracket;whiteSpace=wrap;html=1;rounded=1;fontSize=15;fontColor=#000000;strokeWidth=1;rotation=90;textDirection=ltr;" parent="1" vertex="1">
          <mxGeometry x="533.51" y="433.36" width="35" height="379.36" as="geometry" />
        </mxCell>
        <mxCell id="F52f6HL5-kWmurxWYG2i-30" value="二进制报文" style="rounded=0;whiteSpace=wrap;html=1;fontSize=14;fontColor=#000000;strokeWidth=1;" parent="1" vertex="1">
          <mxGeometry x="740" y="650" width="121" height="40" as="geometry" />
        </mxCell>
        <mxCell id="F52f6HL5-kWmurxWYG2i-34" value="" style="shape=curlyBracket;whiteSpace=wrap;html=1;rounded=1;fontSize=15;fontColor=#000000;strokeWidth=1;rotation=90;" parent="1" vertex="1">
          <mxGeometry x="238.72" y="519.02" width="30.3" height="209.45" as="geometry" />
        </mxCell>
        <mxCell id="F52f6HL5-kWmurxWYG2i-35" value="grpc协议头" style="text;html=1;strokeColor=none;fillColor=none;align=center;verticalAlign=middle;whiteSpace=wrap;rounded=0;fontSize=15;fontColor=#000000;" parent="1" vertex="1">
          <mxGeometry x="230" y="580" width="80" height="30" as="geometry" />
        </mxCell>
        <mxCell id="F52f6HL5-kWmurxWYG2i-36" value="自定义协议头" style="text;html=1;strokeColor=none;fillColor=none;align=center;verticalAlign=middle;whiteSpace=wrap;rounded=0;fontSize=15;fontColor=#000000;" parent="1" vertex="1">
          <mxGeometry x="600" y="585" width="100" height="30" as="geometry" />
        </mxCell>
        <mxCell id="KIVY4oxuxgpTc2JLVLL0-1" value="&lt;font style=&quot;font-size: 18px;&quot;&gt;&lt;b&gt;客户端&lt;/b&gt;&lt;/font&gt;" style="rounded=0;whiteSpace=wrap;html=1;fontSize=15;fontColor=#000000;strokeWidth=1;align=left;verticalAlign=top;" vertex="1" parent="1">
          <mxGeometry x="1080" y="620" width="230" height="110" as="geometry" />
        </mxCell>
        <mxCell id="KIVY4oxuxgpTc2JLVLL0-2" value="&lt;div style=&quot;text-align: justify;&quot;&gt;&lt;span style=&quot;background-color: initial;&quot;&gt;FastNet SDK&lt;/span&gt;&lt;/div&gt;" style="rounded=0;whiteSpace=wrap;html=1;fontSize=15;strokeWidth=1;align=left;verticalAlign=top;fillColor=#fad7ac;strokeColor=#b46504;" vertex="1" parent="1">
          <mxGeometry x="1140" y="650" width="167.5" height="80" as="geometry" />
        </mxCell>
        <mxCell id="KIVY4oxuxgpTc2JLVLL0-3" value="&lt;font style=&quot;font-size: 15px;&quot; color=&quot;#ff6666&quot;&gt;grpc拆包&lt;/font&gt;" style="rounded=0;whiteSpace=wrap;html=1;fillColor=#bac8d3;strokeColor=#23445d;" vertex="1" parent="1">
          <mxGeometry x="1167.5" y="680" width="70" height="50" as="geometry" />
        </mxCell>
        <mxCell id="KIVY4oxuxgpTc2JLVLL0-4" value="&lt;font style=&quot;font-size: 15px;&quot;&gt;Cronet&lt;/font&gt;" style="rounded=0;whiteSpace=wrap;html=1;fillColor=#b0e3e6;strokeColor=#0e8088;strokeWidth=3;" vertex="1" parent="1">
          <mxGeometry x="1237.5" y="680" width="70" height="50" as="geometry" />
        </mxCell>
        <mxCell id="KIVY4oxuxgpTc2JLVLL0-8" value="&lt;font style=&quot;font-size: 15px;&quot;&gt;深圳&lt;/font&gt;" style="rounded=1;whiteSpace=wrap;html=1;fillColor=#d5e8d4;strokeColor=#82b366;" vertex="1" parent="1">
          <mxGeometry x="1080" y="840" width="110" height="40" as="geometry" />
        </mxCell>
        <mxCell id="KIVY4oxuxgpTc2JLVLL0-9" value="&lt;font style=&quot;font-size: 15px;&quot;&gt;无锡&lt;/font&gt;" style="rounded=1;whiteSpace=wrap;html=1;fillColor=#d5e8d4;strokeColor=#82b366;" vertex="1" parent="1">
          <mxGeometry x="1220" y="840" width="110" height="40" as="geometry" />
        </mxCell>
        <mxCell id="KIVY4oxuxgpTc2JLVLL0-10" value="深圳" style="rounded=1;whiteSpace=wrap;html=1;fontSize=15;fillColor=#fff2cc;strokeColor=#d6b656;" vertex="1" parent="1">
          <mxGeometry x="1080" y="970" width="120" height="40" as="geometry" />
        </mxCell>
        <mxCell id="KIVY4oxuxgpTc2JLVLL0-11" value="无锡" style="rounded=1;whiteSpace=wrap;html=1;fontSize=15;fillColor=#fff2cc;strokeColor=#d6b656;" vertex="1" parent="1">
          <mxGeometry x="1220" y="970" width="122.5" height="40" as="geometry" />
        </mxCell>
        <mxCell id="KIVY4oxuxgpTc2JLVLL0-12" value="深圳" style="rounded=1;whiteSpace=wrap;html=1;fontSize=15;fillColor=#fff2cc;strokeColor=#d6b656;" vertex="1" parent="1">
          <mxGeometry x="1410" y="970" width="100" height="40" as="geometry" />
        </mxCell>
        <mxCell id="KIVY4oxuxgpTc2JLVLL0-14" value="nginx" style="rounded=1;whiteSpace=wrap;html=1;fontSize=15;" vertex="1" parent="1">
          <mxGeometry x="1420" y="812.72" width="110" height="40" as="geometry" />
        </mxCell>
        <mxCell id="KIVY4oxuxgpTc2JLVLL0-16" value="h2/h3 + json" style="shape=flexArrow;endArrow=classic;startArrow=classic;html=1;rounded=0;fontSize=15;entryX=0.628;entryY=1.017;entryDx=0;entryDy=0;entryPerimeter=0;fontStyle=1" edge="1" parent="1" source="KIVY4oxuxgpTc2JLVLL0-15" target="KIVY4oxuxgpTc2JLVLL0-3">
          <mxGeometry width="100" height="100" relative="1" as="geometry">
            <mxPoint x="1150" y="860" as="sourcePoint" />
            <mxPoint x="1210" y="740" as="targetPoint" />
          </mxGeometry>
        </mxCell>
        <mxCell id="KIVY4oxuxgpTc2JLVLL0-20" value="&lt;b&gt;2.http调用&lt;/b&gt;" style="endArrow=classic;startArrow=classic;html=1;rounded=0;fontSize=18;entryX=0.5;entryY=1;entryDx=0;entryDy=0;exitX=0.458;exitY=0;exitDx=0;exitDy=0;exitPerimeter=0;" edge="1" parent="1" source="KIVY4oxuxgpTc2JLVLL0-10" target="KIVY4oxuxgpTc2JLVLL0-8">
          <mxGeometry width="50" height="50" relative="1" as="geometry">
            <mxPoint x="1135" y="960" as="sourcePoint" />
            <mxPoint x="1170" y="880" as="targetPoint" />
          </mxGeometry>
        </mxCell>
        <mxCell id="KIVY4oxuxgpTc2JLVLL0-21" value="" style="endArrow=classic;startArrow=classic;html=1;rounded=0;fontSize=18;entryX=0.564;entryY=1.006;entryDx=0;entryDy=0;entryPerimeter=0;" edge="1" parent="1">
          <mxGeometry width="50" height="50" relative="1" as="geometry">
            <mxPoint x="1262" y="970" as="sourcePoint" />
            <mxPoint x="1262.04" y="877.24" as="targetPoint" />
          </mxGeometry>
        </mxCell>
        <mxCell id="KIVY4oxuxgpTc2JLVLL0-23" value="无锡" style="rounded=1;whiteSpace=wrap;html=1;fontSize=15;fillColor=#fff2cc;strokeColor=#d6b656;" vertex="1" parent="1">
          <mxGeometry x="1530" y="970" width="100" height="40" as="geometry" />
        </mxCell>
        <mxCell id="KIVY4oxuxgpTc2JLVLL0-27" value="1.拉取配置" style="endArrow=open;endSize=12;dashed=1;html=1;rounded=0;fontSize=18;entryX=0.628;entryY=0.012;entryDx=0;entryDy=0;entryPerimeter=0;" edge="1" parent="1" target="KIVY4oxuxgpTc2JLVLL0-14">
          <mxGeometry width="160" relative="1" as="geometry">
            <mxPoint x="1310" y="680" as="sourcePoint" />
            <mxPoint x="1470" y="680" as="targetPoint" />
          </mxGeometry>
        </mxCell>
        <mxCell id="KIVY4oxuxgpTc2JLVLL0-29" value="深圳" style="rounded=1;whiteSpace=wrap;html=1;fontSize=18;fillColor=#fff2cc;strokeColor=#d6b656;" vertex="1" parent="1">
          <mxGeometry x="1090" y="1090" width="110" height="40" as="geometry" />
        </mxCell>
        <mxCell id="KIVY4oxuxgpTc2JLVLL0-30" value="无锡" style="rounded=1;whiteSpace=wrap;html=1;fontSize=18;fillColor=#fff2cc;strokeColor=#d6b656;" vertex="1" parent="1">
          <mxGeometry x="1226.25" y="1090" width="110" height="40" as="geometry" />
        </mxCell>
        <mxCell id="KIVY4oxuxgpTc2JLVLL0-32" value="3.tcp rpc +yyp" style="endArrow=classic;startArrow=classic;html=1;rounded=0;fontSize=18;entryX=0.25;entryY=1;entryDx=0;entryDy=0;exitX=0.377;exitY=-0.009;exitDx=0;exitDy=0;exitPerimeter=0;fontStyle=1" edge="1" parent="1" source="KIVY4oxuxgpTc2JLVLL0-29" target="KIVY4oxuxgpTc2JLVLL0-17">
          <mxGeometry width="50" height="50" relative="1" as="geometry">
            <mxPoint x="1120" y="1070" as="sourcePoint" />
            <mxPoint x="1170" y="1020" as="targetPoint" />
          </mxGeometry>
        </mxCell>
        <mxCell id="KIVY4oxuxgpTc2JLVLL0-33" value="rpc" style="endArrow=classic;startArrow=classic;html=1;rounded=0;fontSize=18;entryX=0.25;entryY=1;entryDx=0;entryDy=0;exitX=0.377;exitY=-0.009;exitDx=0;exitDy=0;exitPerimeter=0;" edge="1" parent="1">
          <mxGeometry width="50" height="50" relative="1" as="geometry">
            <mxPoint x="1266.4699999999998" y="1089.6399999999999" as="sourcePoint" />
            <mxPoint x="1267.5" y="1020" as="targetPoint" />
          </mxGeometry>
        </mxCell>
        <mxCell id="KIVY4oxuxgpTc2JLVLL0-34" value="1" style="endArrow=open;endSize=12;dashed=1;html=1;rounded=0;fontSize=18;entryX=0.25;entryY=0;entryDx=0;entryDy=0;exitX=0.436;exitY=0.982;exitDx=0;exitDy=0;exitPerimeter=0;" edge="1" parent="1" source="KIVY4oxuxgpTc2JLVLL0-14" target="KIVY4oxuxgpTc2JLVLL0-12">
          <mxGeometry width="160" relative="1" as="geometry">
            <mxPoint x="1450" y="860" as="sourcePoint" />
            <mxPoint x="1610" y="860" as="targetPoint" />
          </mxGeometry>
        </mxCell>
        <mxCell id="KIVY4oxuxgpTc2JLVLL0-35" value="1" style="endArrow=open;endSize=12;dashed=1;html=1;rounded=0;fontSize=18;exitX=0.682;exitY=1.041;exitDx=0;exitDy=0;exitPerimeter=0;" edge="1" parent="1" source="KIVY4oxuxgpTc2JLVLL0-14">
          <mxGeometry width="160" relative="1" as="geometry">
            <mxPoint x="1477.96" y="862" as="sourcePoint" />
            <mxPoint x="1560" y="970" as="targetPoint" />
          </mxGeometry>
        </mxCell>
        <mxCell id="KIVY4oxuxgpTc2JLVLL0-36" value="" style="endArrow=classic;startArrow=classic;html=1;rounded=0;fontSize=18;entryX=0.25;entryY=1;entryDx=0;entryDy=0;exitX=0.39;exitY=-0.097;exitDx=0;exitDy=0;exitPerimeter=0;" edge="1" parent="1" source="KIVY4oxuxgpTc2JLVLL0-30" target="KIVY4oxuxgpTc2JLVLL0-17">
          <mxGeometry width="50" height="50" relative="1" as="geometry">
            <mxPoint x="1130" y="1070" as="sourcePoint" />
            <mxPoint x="1180" y="1020" as="targetPoint" />
          </mxGeometry>
        </mxCell>
        <mxCell id="KIVY4oxuxgpTc2JLVLL0-37" value="" style="endArrow=classic;startArrow=classic;html=1;rounded=0;fontSize=18;exitX=0.431;exitY=-0.097;exitDx=0;exitDy=0;exitPerimeter=0;" edge="1" parent="1" source="KIVY4oxuxgpTc2JLVLL0-29">
          <mxGeometry width="50" height="50" relative="1" as="geometry">
            <mxPoint x="1140" y="1080" as="sourcePoint" />
            <mxPoint x="1266" y="1020" as="targetPoint" />
            <Array as="points" />
          </mxGeometry>
        </mxCell>
      </root>
    </mxGraphModel>
  </diagram>
</mxfile>
